<svg width="560" height="834" viewBox="0 0 560 834" fill="none" xmlns="http://www.w3.org/2000/svg">
<rect width="560" height="834" rx="12" fill="white"/>
<path d="M127 155.5C127 125.953 150.953 102 180.5 102H379.5C409.047 102 433 125.953 433 155.5V678.5C433 708.047 409.047 732 379.5 732H180.5C150.953 732 127 708.047 127 678.5V155.5Z" stroke="#737373"/>
<path d="M138 156.5C138 131.923 157.923 112 182.5 112H206.5C212.851 112 218 117.149 218 123.5C218 131.508 224.492 138 232.5 138H327.5C335.508 138 342 131.508 342 123.5C342 117.149 347.149 112 353.5 112H377.5C402.077 112 422 131.923 422 156.5V677.5C422 702.077 402.077 722 377.5 722H182.5C157.923 722 138 702.077 138 677.5V156.5Z" fill="white" stroke="#737373"/>
<circle cx="279.5" cy="213" r="48" fill="#EEEEEE"/>
<rect x="199.5" y="286" width="160" height="16" rx="8" fill="#EEEEEE"/>
<rect x="243.5" y="315" width="72" height="8" rx="4" fill="#EEEEEE"/>
</svg>
