<svg width="17" height="19" viewBox="0 0 14 12" fill="none" xmlns="http://www.w3.org/2000/svg">
<path d="M7.16259 0.666504C7.51859 0.668504 8.40925 0.677171 9.35592 0.715171L9.69192 0.729837C10.6446 0.774504 11.5966 0.851837 12.0693 0.983171C12.6993 1.1605 13.1939 1.6765 13.3613 2.33117C13.6279 3.37117 13.6613 5.39917 13.6653 5.8905L13.6659 5.99184V6.10784C13.6613 6.59917 13.6279 8.62784 13.3613 9.66717C13.1919 10.3238 12.6966 10.8405 12.0693 11.0152C11.5966 11.1465 10.6446 11.2238 9.69192 11.2685L9.35592 11.2838C8.40925 11.3212 7.51859 11.3305 7.16259 11.3318L7.00592 11.3325H6.83592C6.08259 11.3278 2.93192 11.2938 1.92925 11.0152C1.29992 10.8378 0.804585 10.3218 0.637252 9.66717C0.370585 8.62717 0.337252 6.59917 0.333252 6.10784V5.8905C0.337252 5.39917 0.370585 3.3705 0.637252 2.33117C0.806585 1.6745 1.30192 1.15784 1.92992 0.983837C2.93192 0.704504 6.08325 0.670504 6.83659 0.666504H7.16259ZM5.66592 3.6665V8.33317L9.66592 5.99984L5.66592 3.6665Z" fill="#737373"/>
</svg>
